<?xml version="1.0" standalone="no"?>
<!DOCTYPE svg PUBLIC "-//W3C//DTD SVG 20010904//EN"
 "http://www.w3.org/TR/2001/REC-SVG-20010904/DTD/svg10.dtd">
<svg version="1.0" xmlns="http://www.w3.org/2000/svg"
 width="976.000000pt" height="992.000000pt" viewBox="0 0 976.000000 992.000000"
 preserveAspectRatio="xMidYMid meet">

<g transform="translate(0.000000,992.000000) scale(0.100000,-0.100000)"
fill="#000000" stroke="none">
<path d="M1665 8101 c-27 -12 -51 -41 -58 -71 -3 -14 -6 -1298 -8 -2855 -1
-2098 1 -2844 10 -2885 18 -88 42 -151 53 -144 7 4 8 2 4 -4 -14 -24 91 -176
139 -202 14 -7 25 -17 25 -22 0 -5 4 -7 9 -4 5 3 12 -1 15 -10 4 -10 12 -14
23 -10 10 4 14 4 10 0 -10 -10 53 -46 70 -40 8 3 11 1 8 -4 -6 -9 -2 -12 28
-14 6 -1 15 -5 19 -10 11 -16 139 -47 258 -62 151 -20 498 -12 920 21 398 31
668 8 940 -80 145 -47 246 -109 351 -214 169 -169 248 -363 249 -617 0 -77 7
-90 67 -113 39 -16 100 -18 113 -5 5 5 12 59 14 119 6 135 16 189 55 283 46
113 88 177 186 280 100 105 224 193 342 242 156 65 388 112 613 125 108 6 505
-12 775 -36 232 -20 503 -22 619 -5 59 9 121 23 137 31 15 8 37 15 49 15 13 0
19 4 14 12 -4 6 -3 8 4 5 15 -10 43 3 35 16 -3 6 -1 7 5 3 16 -10 69 23 75 46
3 10 11 18 17 18 9 0 9 -4 -1 -18 -7 -9 10 4 37 31 83 79 150 211 176 347 7
38 10 956 9 2905 -2 2456 -5 2853 -17 2872 -8 13 -26 31 -41 40 -26 17 -186
18 -3178 20 -1732 1 -3159 -2 -3170 -6z m6213 -236 c9 -3 12 -318 12 -1530 l0
-1525 -32 -1 c-114 -4 -6046 -7 -6060 -3 -17 5 -18 84 -18 1482 0 812 3 1501
6 1529 l7 53 2971 2 c2882 3 3087 2 3114 -7z m-7 -3256 c20 -10 21 -20 21
-942 1 -513 1 -1011 1 -1107 1 -199 -9 -251 -72 -385 -64 -136 -184 -226 -351
-261 -64 -14 -123 -15 -400 -10 -179 3 -419 13 -535 21 -529 37 -895 5 -1150
-99 -214 -87 -417 -266 -529 -464 -17 -31 -37 -57 -43 -57 -7 0 -35 34 -64 75
-69 99 -197 224 -301 293 -121 81 -316 172 -432 202 -240 62 -535 75 -1008 46
-399 -25 -843 -28 -929 -8 -32 8 -77 26 -102 40 -48 28 -126 111 -147 156 -7
14 -19 39 -28 55 -15 28 -17 39 -26 116 -6 45 -6 -21 1 1247 l5 1083 2957 3
c1626 1 2991 3 3034 5 43 1 87 -3 98 -9z"/>
<path d="M4014 7481 c-61 -28 -109 -75 -135 -133 -31 -68 -34 -215 -6 -293 32
-93 113 -153 218 -162 61 -6 156 3 177 16 12 7 36 120 28 129 -2 2 -38 -4 -80
-13 -145 -30 -194 5 -204 147 -6 80 15 146 55 178 31 24 104 27 156 5 20 -8
40 -15 45 -15 11 0 32 69 32 107 0 29 -3 31 -57 42 -85 17 -181 14 -229 -8z"/>
<path d="M4417 7493 c-4 -3 -7 -138 -7 -300 l0 -293 80 0 80 0 0 294 0 293
-52 7 c-68 8 -93 8 -101 -1z"/>
<path d="M4717 7493 c-4 -3 -7 -138 -7 -300 l0 -293 78 0 77 0 -3 115 c-3 94
-1 115 10 115 22 0 52 -37 108 -137 l53 -93 89 0 c69 0 87 3 82 13 -4 6 -37
57 -74 112 -37 55 -70 105 -74 112 -3 7 7 26 25 44 40 41 59 87 59 144 0 78
-44 135 -119 155 -44 11 -295 23 -304 13z m244 -134 c22 -11 27 -37 17 -76 -6
-25 -17 -35 -52 -48 -25 -10 -49 -14 -55 -10 -11 6 -16 137 -5 148 7 7 73 -3
95 -14z m-174 -226 c-2 -140 -5 -177 -16 -181 -12 -4 -13 13 -8 99 4 57 7 139
7 182 0 42 4 77 9 77 6 0 9 -72 8 -177z"/>
<path d="M5415 7476 c-57 -26 -99 -70 -129 -136 -15 -35 -20 -65 -20 -135 1
-113 14 -161 63 -223 53 -67 106 -87 231 -87 83 1 102 4 147 28 53 27 83 61
108 120 37 89 35 239 -4 315 -28 55 -102 117 -156 131 -77 19 -183 14 -240
-13z m196 -119 c48 -32 69 -79 69 -157 -1 -115 -48 -185 -126 -185 -114 0
-172 173 -101 300 38 67 98 83 158 42z"/>
<path d="M4670 6623 c-101 -52 -156 -153 -154 -288 0 -57 6 -83 31 -135 37
-80 56 -101 113 -132 39 -20 59 -23 150 -23 80 1 114 5 142 19 53 26 102 84
128 152 19 50 21 73 18 154 -5 107 -23 153 -80 206 -57 54 -94 68 -198 72 -88
3 -99 2 -150 -25z m205 -119 c81 -53 87 -228 10 -310 -53 -56 -130 -42 -177
33 -34 56 -33 170 2 231 14 24 36 50 50 58 30 17 79 12 115 -12z"/>
<path d="M6140 6640 l-105 -5 -36 -125 c-20 -69 -59 -195 -88 -281 -28 -86
-51 -162 -51 -168 0 -7 31 -11 90 -11 l90 0 0 38 c0 20 4 42 8 48 4 7 50 13
109 16 l103 5 6 -36 c12 -72 8 -69 95 -73 45 -2 83 0 85 4 9 15 -175 586 -190
590 -6 2 -58 1 -116 -2z m49 -207 c12 -54 25 -108 28 -120 5 -22 3 -23 -62
-23 -65 0 -67 1 -61 23 10 36 34 139 40 180 12 65 31 44 55 -60z"/>
<path d="M7279 6622 c-38 -20 -65 -44 -91 -81 -119 -170 -44 -449 132 -491 79
-19 212 -7 265 25 83 48 128 142 129 270 1 74 -3 99 -23 142 -49 109 -144 163
-287 163 -59 0 -81 -5 -125 -28z m208 -118 c44 -28 63 -73 63 -147 0 -146 -78
-227 -174 -182 -46 22 -74 68 -82 136 -10 91 30 184 90 210 26 11 73 3 103
-17z"/>
<path d="M2000 6377 c0 -146 -3 -279 -6 -296 l-6 -31 76 0 77 0 -6 168 c-3 92
-8 179 -10 194 -5 32 10 46 23 21 5 -10 19 -56 31 -103 41 -157 84 -280 98
-281 7 0 29 -1 48 -1 89 0 82 -5 110 82 14 45 40 157 57 250 18 94 36 170 40
170 3 0 6 -112 5 -250 l-2 -250 66 0 67 0 4 43 c3 23 6 156 7 295 l2 252 -105
0 -105 0 -30 -97 c-17 -54 -43 -145 -58 -202 -15 -57 -33 -106 -39 -108 -10
-3 -36 69 -71 197 -9 36 -29 96 -43 135 l-26 70 -102 3 -102 3 0 -264z m537
191 c-3 -8 -6 -5 -6 6 -1 11 2 17 5 13 3 -3 4 -12 1 -19z"/>
<path d="M2936 6632 c-2 -4 -39 -120 -81 -258 -41 -137 -82 -265 -90 -286
l-14 -36 62 -4 c109 -6 114 -3 124 50 8 45 10 47 48 52 22 3 69 6 105 5 l65 0
8 -52 9 -53 89 0 c89 0 90 0 83 23 -3 12 -35 110 -70 217 -34 107 -73 229 -86
270 l-23 75 -112 3 c-61 1 -114 -1 -117 -6z m121 -124 c15 -20 56 -196 49
-213 -7 -19 -75 -20 -99 -2 -15 11 -15 17 -2 66 7 29 17 78 21 107 6 55 14 64
31 42z"/>
<path d="M3430 6347 c0 -162 2 -296 4 -298 2 -2 90 -3 196 -1 l191 3 -3 60 -3
61 -110 2 -110 1 -3 233 -2 232 -80 0 -80 0 0 -293z"/>
<path d="M3918 6635 c-3 -4 -7 -137 -8 -297 l-1 -290 163 4 c156 3 166 5 210
31 120 70 176 225 134 371 -21 70 -89 144 -151 165 -43 14 -335 28 -347 16z
m282 -140 c40 -21 60 -63 60 -128 0 -82 -10 -115 -44 -151 -32 -34 -108 -58
-127 -39 -15 15 -22 118 -14 227 l7 106 44 0 c25 0 58 -7 74 -15z"/>
<path d="M5219 6638 c0 -2 -2 -135 -4 -295 l-3 -293 69 0 69 0 0 196 c0 144 3
195 12 192 8 -3 182 -333 200 -381 3 -7 145 -12 210 -8 15 1 16 28 18 296 l1
295 -73 0 -73 0 3 -202 c3 -179 2 -201 -12 -188 -8 8 -55 93 -105 189 -50 96
-96 180 -102 188 -8 9 -40 13 -110 13 -55 0 -99 -1 -100 -2z"/>
<path d="M6537 6633 c-9 -8 -9 -155 0 -397 l6 -188 151 4 c145 3 153 5 206 33
96 52 144 147 143 283 -1 136 -77 234 -203 261 -55 12 -292 15 -303 4z m288
-145 c37 -29 55 -76 55 -143 0 -63 -26 -126 -63 -149 -34 -23 -107 -32 -118
-15 -10 16 -12 312 -2 322 3 4 27 7 53 7 33 0 55 -6 75 -22z"/>
<path d="M5781 5757 c-15 -15 -194 -565 -188 -580 3 -8 32 -12 88 -12 l84 0 9
51 8 52 46 6 c24 3 71 6 102 6 56 0 58 -1 64 -31 3 -17 6 -42 6 -55 0 -24 2
-24 94 -24 l94 0 -28 88 c-80 250 -164 498 -172 503 -16 11 -195 8 -207 -4z
m119 -139 c19 -47 52 -188 47 -203 -5 -11 -18 -13 -59 -8 -29 3 -55 7 -57 9
-2 2 1 28 7 56 6 29 16 79 22 111 12 60 24 71 40 35z"/>
<path d="M3530 5695 l0 -65 116 3 c63 1 120 0 126 -4 6 -4 -2 -20 -19 -40 -17
-19 -49 -63 -73 -99 -24 -36 -63 -91 -86 -123 -45 -61 -88 -161 -80 -184 4
-10 52 -13 236 -13 l231 0 -3 62 -3 62 -122 -3 c-139 -3 -144 0 -93 64 60 76
201 295 211 327 5 18 9 43 9 55 l0 23 -225 0 -225 0 0 -65z"/>
<path d="M4070 5465 l0 -295 180 0 180 0 0 60 0 60 -95 0 -95 0 0 60 0 60 91
0 90 0 -3 63 -3 62 -86 3 -87 3 -4 34 c-7 59 1 63 102 57 l90 -5 0 67 0 66
-180 0 -180 0 0 -295z"/>
<path d="M4544 5468 l6 -293 75 -3 75 -3 0 116 c0 63 3 115 8 115 18 -1 35
-22 94 -120 l64 -105 87 -3 c48 -1 87 0 87 3 0 3 -34 57 -76 121 -73 111 -75
116 -59 137 8 12 27 37 40 56 53 72 45 155 -19 217 -52 49 -73 54 -255 54
l-133 0 6 -292z m260 152 c28 -27 15 -85 -24 -105 -38 -20 -76 -19 -84 1 -10
25 -7 94 5 115 8 16 17 19 47 13 20 -3 45 -14 56 -24z"/>
<path d="M5116 5743 c-4 -9 -6 -142 -5 -295 l1 -278 79 0 79 0 0 94 0 94 31 6
c17 3 46 6 65 6 99 0 173 83 174 197 0 65 -13 99 -53 141 -42 44 -79 52 -233
52 -115 0 -133 -2 -138 -17z m228 -113 c76 -29 41 -140 -43 -140 -24 0 -31 19
-31 85 0 64 17 77 74 55z"/>
<path d="M2790 4333 c-46 -103 -55 -275 -19 -350 11 -24 25 -40 30 -37 5 3 7
10 4 15 -4 5 -1 9 4 9 6 0 11 -6 11 -12 1 -7 8 2 16 21 8 19 12 41 9 48 -2 8
-1 11 4 8 14 -8 24 77 17 148 -17 174 -21 192 -38 195 -12 2 -23 -11 -38 -45z
m47 -28 c-1 -19 -5 -35 -9 -35 -4 0 -8 16 -8 35 0 19 4 35 9 35 5 0 9 -16 8
-35z m8 -245 c3 -5 1 -10 -4 -10 -6 0 -11 5 -11 10 0 6 2 10 4 10 3 0 8 -4 11
-10z"/>
<path d="M6930 4203 c-29 -113 -31 -222 -6 -293 9 -25 16 -53 16 -62 0 -22 19
-24 21 -3 3 29 4 33 13 42 5 5 6 2 2 -7 -4 -8 0 -6 9 5 31 38 48 123 42 209
-6 87 -41 206 -61 206 -6 0 -22 -43 -36 -97z m30 -180 c-1 -28 -3 -34 -10 -22
-8 14 -3 59 6 59 2 0 4 -17 4 -37z m36 -78 c-12 -9 -16 -20 -12 -31 6 -15 4
-15 -10 -3 -15 12 -14 15 6 31 12 10 25 18 29 18 3 0 -2 -7 -13 -15z"/>
<path d="M4410 4276 c-36 -8 -105 -29 -155 -46 -74 -27 -107 -33 -186 -35 -52
-1 -105 -8 -117 -14 -54 -29 -53 -15 -55 -613 -2 -617 -2 -619 59 -644 84 -35
898 -52 1441 -30 412 16 434 20 453 72 15 37 13 1136 -1 1167 -16 36 -53 49
-159 57 -65 5 -131 18 -210 43 -150 48 -202 57 -321 57 -112 0 -177 -19 -240
-70 -45 -36 -49 -36 -72 -9 -10 11 -44 32 -75 47 -50 23 -72 26 -177 29 -73 1
-145 -3 -185 -11z m289 -50 c67 -18 129 -61 138 -95 8 -33 10 -1011 2 -1011
-4 0 -12 7 -19 15 -22 26 -132 72 -190 79 -77 10 -220 -10 -377 -50 -72 -19
-134 -34 -137 -34 -4 0 -5 224 -4 497 l3 498 28 13 c15 7 67 25 115 39 209 62
337 76 441 49z m631 -11 c158 -37 301 -81 311 -96 11 -18 12 -999 0 -999 -5 0
-24 6 -42 14 -19 8 -95 29 -169 46 -104 25 -159 33 -240 34 -110 1 -148 -11
-245 -73 l-30 -20 3 517 3 517 22 18 c82 68 214 83 387 42z m-1280 -614 c0
-300 0 -552 0 -560 0 -11 40 -12 243 -5 300 11 399 9 504 -12 76 -15 87 -15
155 1 63 15 120 17 413 14 l340 -4 5 555 c5 551 5 555 26 558 11 2 32 -2 47
-7 l27 -11 0 -563 c0 -454 -3 -567 -13 -581 -17 -24 -99 -31 -556 -46 -264 -9
-433 -9 -730 0 -443 13 -529 21 -548 46 -11 14 -13 133 -11 583 l3 564 35 12
c19 7 41 10 48 7 10 -3 12 -117 12 -551z m-117 -16 c4 -8 3 -16 -1 -19 -4 -3
-9 4 -9 15 -2 23 3 25 10 4z m784 -443 c21 -11 66 -33 100 -51 34 -17 67 -31
72 -31 6 0 11 -4 11 -9 0 -9 -44 -1 -130 23 -60 17 -322 21 -540 7 -126 -8
-203 0 -116 12 26 4 100 19 163 33 63 14 143 29 176 34 93 13 219 5 264 -18z
m663 -1 c52 -12 128 -28 167 -37 40 -9 79 -14 86 -11 8 3 19 2 26 -3 23 -13
-84 -21 -158 -10 -100 14 -469 15 -504 1 -35 -14 -87 -14 -87 -1 0 6 8 10 19
10 10 0 31 10 46 22 16 12 51 30 79 41 63 22 186 18 326 -12z"/>
<path d="M2505 4119 c-4 -5 0 -24 8 -42 9 -18 27 -59 42 -92 38 -86 96 -158
178 -219 112 -83 113 -84 133 -39 10 21 16 44 15 50 -1 7 4 10 12 7 16 -6 89
84 111 138 21 49 36 147 24 154 -13 8 -99 -84 -123 -132 -11 -21 -30 -52 -42
-67 -13 -16 -23 -35 -23 -43 0 -27 -26 -14 -66 33 -117 140 -156 183 -199 221
-50 44 -60 48 -70 31z"/>
<path d="M7178 3978 c-34 -29 -76 -68 -92 -88 -17 -19 -50 -54 -73 -77 -42
-42 -59 -69 -26 -42 13 12 15 12 12 1 -6 -18 -70 -46 -66 -29 1 7 -5 10 -13 9
-8 -2 -12 0 -8 4 4 4 4 12 -1 18 -5 6 -25 43 -46 81 -38 73 -99 145 -123 145
-7 0 -11 -3 -9 -7 3 -5 8 -37 12 -73 4 -45 18 -90 46 -147 40 -84 47 -117 29
-128 -15 -10 -34 8 -117 113 -94 117 -107 119 -101 13 5 -91 32 -156 98 -235
22 -27 43 -60 47 -74 8 -33 -9 -135 -24 -139 -6 -2 -20 23 -32 59 -33 97 -70
152 -148 217 -40 34 -75 61 -78 61 -3 0 -5 -9 -5 -20 0 -11 4 -20 9 -20 6 0 7
-15 4 -34 -7 -47 8 -88 93 -257 59 -119 71 -149 61 -161 -12 -15 -71 -58 -80
-58 -2 0 -7 29 -10 66 -8 85 -94 290 -113 271 -5 -5 -4 -11 2 -15 6 -4 13 -17
17 -30 4 -18 2 -22 -9 -18 -8 3 -14 1 -14 -4 0 -6 5 -10 10 -10 17 0 11 -28
-7 -39 -12 -7 -14 -10 -4 -11 9 0 12 -8 9 -25 -3 -14 -1 -25 3 -25 5 0 9 -9 9
-20 0 -11 -4 -20 -10 -20 -5 0 -7 8 -4 18 3 9 -2 6 -11 -8 -9 -14 -14 -17 -11
-8 3 10 1 20 -5 24 -5 3 -7 13 -5 22 3 10 2 31 -3 47 -8 26 -9 23 -10 -26 -1
-80 24 -148 77 -209 l45 -51 -23 -30 c-27 -38 -21 -47 10 -14 27 29 42 31 75
9 56 -37 239 -25 344 23 52 23 121 67 121 76 0 4 -60 7 -132 7 -177 -2 -328
-33 -328 -67 0 -9 5 -11 13 -7 8 6 8 3 -1 -9 -11 -13 -17 -14 -33 -4 -26 16
-24 31 11 71 25 28 44 38 103 51 134 30 351 106 421 147 101 60 141 88 141
101 0 7 -20 15 -45 19 -25 4 -66 11 -92 16 -46 9 -53 7 -159 -44 -61 -30 -122
-63 -136 -74 -30 -23 -63 -26 -63 -6 0 7 31 46 68 85 37 40 65 74 62 77 -3 3
7 3 21 -1 31 -8 147 19 204 48 108 53 243 177 195 177 -24 0 -139 -33 -136
-39 2 -3 -8 -6 -23 -7 -15 -1 -78 -24 -139 -52 -61 -29 -115 -52 -121 -52 -6
0 -11 -5 -11 -12 0 -6 -3 -8 -6 -5 -14 14 50 78 112 113 86 48 167 115 203
168 65 94 119 226 93 226 -6 0 -39 -24 -74 -52z m-108 -148 c-12 -17 -31 -35
-43 -41 -18 -10 -17 -5 8 22 49 56 68 66 35 19z m-416 -35 c18 -27 21 -49 6
-40 -16 10 -12 -7 10 -43 18 -28 19 -37 8 -50 -12 -16 -11 -16 7 -2 11 8 21
15 23 16 2 1 -4 9 -13 18 -9 9 -12 16 -7 16 12 0 42 -45 41 -62 0 -10 -2 -10
-6 0 -2 6 -9 12 -14 12 -12 0 1 -33 19 -47 9 -7 13 -13 9 -13 -4 0 0 -11 9
-25 12 -18 13 -25 4 -25 -9 0 -8 -6 3 -18 21 -23 21 -32 2 -32 -17 0 -38 43
-24 48 5 2 9 8 9 13 0 4 -6 6 -14 3 -8 -3 -17 0 -22 7 -4 7 -3 10 4 5 6 -3 13
-2 17 4 3 5 -4 14 -17 19 -29 11 -73 93 -73 137 0 18 3 30 8 27 12 -7 8 11 -9
35 -8 12 -11 22 -6 22 5 0 17 -11 26 -25z m-133 -235 c5 0 9 -4 9 -10 0 -5 -6
-7 -12 -5 -16 6 -38 52 -30 60 4 3 10 -5 15 -19 5 -14 13 -26 18 -26z m554 40
c-3 -5 -12 -10 -18 -10 -7 0 -6 4 3 10 19 12 23 12 15 0z m-65 -25 c-7 -9 -15
-13 -17 -11 -7 7 7 26 19 26 6 0 6 -6 -2 -15z m-462 -67 c4 -15 7 -16 20 -6
13 11 14 11 8 0 -4 -7 -2 -27 4 -43 16 -38 1 -59 -24 -34 -17 18 -22 40 -6 30
12 -7 12 -3 4 19 -3 9 -12 16 -20 16 -11 0 -34 29 -34 43 0 14 43 -9 48 -25z
m219 -40 c-3 -8 -6 -5 -6 6 -1 11 2 17 5 13 3 -3 4 -12 1 -19z m138 12 c3 -5
-1 -10 -10 -10 -9 0 -13 5 -10 10 3 6 8 10 10 10 2 0 7 -4 10 -10z m-282 -126
c1 -15 -4 -29 -12 -32 -8 -3 -11 0 -7 7 4 6 2 11 -4 11 -7 0 -8 6 0 19 7 13 7
22 0 26 -5 3 -10 11 -10 16 0 23 31 -23 33 -47z m-168 -155 c4 -12 2 -26 -5
-33 -10 -8 -11 -8 -5 3 6 11 4 13 -8 8 -16 -6 -32 18 -21 34 10 16 33 9 39
-12z m62 -61 c-3 -8 -6 -5 -6 6 -1 11 2 17 5 13 3 -3 4 -12 1 -19z m-5 -25
c-6 -2 -10 -9 -7 -13 3 -5 1 -11 -4 -14 -7 -5 -8 11 -2 32 1 1 7 2 14 1 9 0 9
-2 -1 -6z m268 -33 c0 -5 -4 -10 -10 -10 -5 0 -10 5 -10 10 0 6 5 10 10 10 6
0 10 -4 10 -10z m-96 -22 c-3 -4 -11 -5 -20 -1 -8 3 -14 2 -13 -3 4 -25 -3
-34 -28 -33 l-28 1 25 7 c18 5 21 9 11 15 -11 7 -11 10 0 17 17 10 59 8 53 -3z
m-37 -54 c-3 -3 -12 -4 -19 -1 -8 3 -5 6 6 6 11 1 17 -2 13 -5z"/>
<path d="M3098 3879 c-61 -51 -159 -193 -168 -241 -4 -21 -4 -38 1 -38 4 0 15
-8 25 -17 15 -16 17 -16 30 1 7 10 17 16 22 12 12 -7 75 52 67 64 -3 5 5 16
18 25 13 8 32 32 41 53 20 47 37 182 22 182 -6 0 -32 -18 -58 -41z m-18 -67
c0 -5 -11 -19 -25 -32 -29 -27 -33 -19 -7 15 17 25 32 32 32 17z m47 -48 c-4
-15 -5 -14 -6 4 -1 15 -5 21 -13 16 -7 -5 -8 -3 -3 5 10 18 28 -2 22 -25z
m-93 -29 c3 -8 1 -15 -4 -15 -6 0 -10 7 -10 15 0 8 2 15 4 15 2 0 6 -7 10 -15z
m-29 -63 c-3 -3 -11 0 -18 7 -9 10 -8 11 6 5 10 -3 15 -9 12 -12z m-21 -10 c2
-4 0 -14 -6 -22 -8 -12 -9 -11 -4 4 5 14 2 17 -9 12 -9 -3 -13 -2 -10 4 7 12
22 13 29 2z m-27 -42 c-1 -11 -5 -20 -9 -20 -4 0 -8 9 -8 20 0 11 4 20 9 20 6
0 9 -9 8 -20z m73 2 c0 -13 -12 -22 -22 -16 -10 6 -1 24 13 24 5 0 9 -4 9 -8z"/>
<path d="M2460 3792 c0 -16 103 -123 148 -154 25 -17 83 -48 130 -69 82 -36
152 -90 152 -116 0 -19 -11 -17 -114 18 -96 33 -247 51 -260 31 -3 -6 23 -33
59 -61 67 -53 87 -64 64 -33 -13 15 -12 16 3 3 10 -7 16 -17 13 -21 -8 -13 44
-41 124 -67 50 -16 110 -26 177 -30 98 -5 102 -6 118 -34 9 -16 21 -29 27 -29
5 0 9 -4 9 -10 0 -12 -55 -13 -78 -1 -13 7 -285 61 -306 61 -15 0 6 -38 34
-61 110 -93 294 -139 450 -113 l35 6 0 138 c0 117 -3 141 -17 157 -17 18 -17
22 3 74 11 30 18 67 15 84 -3 17 -2 24 1 17 4 -11 51 105 53 131 2 38 -110
-52 -211 -170 -39 -46 -75 -83 -78 -83 -13 0 -72 89 -69 102 2 7 -2 14 -7 14
-6 1 -9 -2 -7 -8 1 -5 -1 -7 -6 -4 -5 3 -8 19 -7 36 1 23 -2 30 -13 25 -8 -3
-33 0 -56 7 -22 6 -45 11 -49 10 -5 -2 -6 1 -3 6 3 5 -45 34 -107 65 -154 77
-227 102 -227 79z m131 -49 c13 -17 13 -17 -6 -3 -11 8 -22 16 -24 17 -2 2 0
3 6 3 6 0 17 -8 24 -17z m562 -433 c22 -76 22 -90 -3 -90 -21 0 -89 67 -90 88
0 17 45 62 62 62 7 0 21 -27 31 -60z m-216 -86 c-3 -3 -12 -4 -19 -1 -8 3 -5
6 6 6 11 1 17 -2 13 -5z"/>
<path d="M3342 3452 c-4 -9 -7 -101 -7 -204 0 -118 -4 -188 -10 -189 -17 -1
-107 -8 -171 -14 -107 -9 -288 -75 -266 -97 15 -15 156 -26 243 -18 85 8 142
26 214 67 52 29 83 29 125 -2 19 -14 43 -25 54 -25 12 0 -7 16 -48 41 -38 23
-71 37 -75 32 -3 -5 -14 -12 -23 -16 -20 -7 -34 21 -18 37 8 8 9 6 5 -6 -6
-15 -4 -15 17 -6 36 17 68 101 68 178 0 80 -14 132 -48 187 -31 49 -50 60 -60
35z m21 -27 c-3 -9 -8 -14 -10 -11 -3 3 -2 9 2 15 9 16 15 13 8 -4z m28 -22
c13 -16 12 -17 -3 -4 -10 7 -18 15 -18 17 0 8 8 3 21 -13z m-14 -81 c11 -7 16
-73 7 -105 -8 -27 -25 -9 -18 20 5 18 3 24 -5 19 -13 -8 -11 21 3 43 6 10 5
12 -2 7 -7 -4 -12 -1 -12 8 0 17 8 20 27 8z m-6 -139 c-10 -4 -10 -7 -1 -13 8
-5 7 -9 -4 -13 -10 -4 -16 -1 -16 7 0 16 10 26 24 25 6 0 5 -3 -3 -6z m-193
-160 c-10 -2 -26 -2 -35 0 -10 3 -2 5 17 5 19 0 27 -2 18 -5z"/>
<path d="M3567 3383 c-3 -10 -13 -69 -23 -132 -15 -98 -16 -122 -4 -170 7 -31
13 -66 14 -78 0 -13 4 -23 9 -23 4 0 7 -9 7 -19 0 -21 7 -19 -195 -56 -49 -9
-109 -25 -132 -36 -54 -26 -157 -105 -145 -112 4 -3 64 -7 133 -8 100 -3 135
0 178 15 69 24 160 77 200 116 l30 30 63 -15 c35 -8 72 -15 83 -15 37 1 -5 17
-78 30 -63 11 -68 14 -63 34 44 151 49 206 26 278 -16 47 -60 130 -60 112 0
-6 -7 -11 -15 -11 -17 0 -20 23 -5 32 15 9 12 45 -4 45 -8 0 -17 -8 -19 -17z
m40 -155 c13 -52 5 -194 -12 -208 -9 -8 -13 19 -14 120 -1 71 2 130 6 130 5 0
14 -19 20 -42z"/>
<path d="M6391 3374 c0 -11 3 -14 6 -6 3 7 2 16 -1 19 -3 4 -6 -2 -5 -13z"/>
<path d="M6226 3309 c-6 -19 -15 -89 -23 -176 -7 -86 14 -146 78 -227 22 -27
39 -52 39 -56 0 -5 -16 -18 -35 -30 -19 -12 -33 -26 -29 -31 3 -5 16 -1 30 10
25 20 48 18 122 -9 18 -7 39 -9 48 -6 8 3 13 2 10 -3 -3 -5 16 -11 42 -14 63
-7 195 2 203 14 3 5 12 8 20 6 8 -2 11 -2 7 0 -20 11 -5 22 15 12 19 -10 20
-10 10 2 -9 11 -6 14 14 16 19 1 22 -1 12 -8 -22 -14 2 -10 54 8 26 9 47 22
47 28 0 6 -30 22 -67 36 -59 21 -84 24 -188 23 -104 -1 -144 -6 -226 -30 -9
-2 -16 1 -17 8 -6 59 -23 169 -30 193 -23 76 -128 257 -136 234z m42 -100 c-3
-8 -7 -3 -11 10 -4 17 -3 21 5 13 5 -5 8 -16 6 -23z"/>
<path d="M6429 2953 c-13 -16 -12 -17 4 -4 16 13 21 21 13 21 -2 0 -10 -8 -17
-17z"/>
<path d="M6214 2774 c-18 -15 -18 -15 2 -5 12 6 25 7 29 3 5 -4 5 -1 1 6 -9
15 -8 15 -32 -4z"/>
<path d="M3667 2308 c-3 -90 -2 -167 2 -171 5 -4 20 -5 35 -1 27 6 27 8 26 78
-3 148 0 227 9 222 5 -3 14 -43 20 -88 7 -46 16 -94 21 -108 5 -14 14 -44 20
-67 10 -40 12 -42 48 -41 l38 0 34 137 c29 119 51 175 63 160 2 -2 -2 -67 -9
-144 -7 -77 -10 -143 -8 -147 3 -5 18 -8 33 -8 25 0 29 5 35 38 3 20 6 97 6
170 l0 134 -57 -6 c-31 -3 -58 -8 -61 -11 -3 -2 -13 -45 -23 -94 -11 -49 -24
-102 -30 -118 -10 -26 -11 -27 -21 -9 -6 10 -23 63 -38 119 -16 55 -33 103
-39 106 -6 4 -31 8 -55 10 l-43 2 -6 -163z"/>
<path d="M4196 2448 c-8 -13 -26 -59 -40 -103 -15 -44 -36 -107 -46 -140 -11
-33 -20 -64 -20 -68 0 -4 21 -7 46 -5 43 3 47 5 58 38 9 30 16 35 45 38 54 5
81 -5 81 -31 0 -33 19 -47 62 -47 37 0 38 1 32 28 -4 15 -11 35 -16 46 -6 10
-18 48 -28 85 -23 82 -57 163 -73 173 -7 4 -29 8 -49 8 -28 0 -41 -6 -52 -22z
m78 -70 c8 -13 18 -44 21 -71 l7 -47 -46 2 c-55 4 -55 2 -20 126 5 19 22 14
38 -10z"/>
<path d="M4473 2458 c-8 -11 -10 -140 -4 -291 1 -38 1 -38 39 -35 l37 3 3 68
c2 37 7 67 12 67 11 0 57 -56 77 -94 9 -17 21 -34 27 -38 6 -4 48 -8 94 -8
l82 0 16 40 c15 38 19 40 58 40 51 0 65 -9 75 -46 7 -26 12 -29 54 -32 52 -3
60 9 33 51 -8 12 -33 79 -56 149 l-42 127 -46 7 c-26 4 -52 2 -61 -3 -16 -10
-35 -64 -75 -212 -12 -47 -27 -86 -33 -88 -17 -6 -97 61 -107 90 -8 22 -6 31
12 49 48 52 45 110 -7 141 -37 22 -174 32 -188 15z m151 -67 c10 -11 14 -25 9
-37 -21 -58 -93 -37 -93 27 0 26 3 29 33 29 20 0 41 -8 51 -19z m326 -50 c11
-37 20 -70 20 -73 0 -3 -20 -5 -45 -6 -51 0 -52 2 -34 76 11 42 25 72 35 72 2
0 12 -31 24 -69z"/>
<path d="M5203 2456 c-51 -23 -73 -69 -73 -150 0 -56 5 -77 26 -113 29 -50 55
-63 124 -63 46 0 80 17 80 40 0 5 3 16 7 26 6 16 1 17 -54 11 -86 -9 -98 2
-98 92 0 97 30 122 117 97 24 -7 28 -5 34 19 4 15 2 31 -5 38 -17 17 -122 19
-158 3z"/>
<path d="M5513 2458 c-6 -7 -20 -44 -32 -83 -11 -38 -31 -104 -43 -145 -12
-41 -24 -81 -26 -87 -4 -16 36 -17 72 -3 16 6 26 17 26 30 0 24 35 40 86 40
35 0 37 -3 48 -52 6 -26 10 -28 51 -28 25 0 45 1 45 3 0 12 -103 314 -111 323
-13 16 -104 17 -116 2z m80 -86 c9 -21 19 -55 22 -75 l7 -37 -47 0 -47 0 7 63
c11 94 33 112 58 49z"/>
<path d="M5770 2459 c0 -6 13 -34 28 -62 47 -86 63 -137 63 -198 1 -35 5 -59
12 -62 10 -3 40 -2 79 2 4 1 7 30 6 65 -2 58 2 73 45 159 26 53 47 98 47 101
0 3 -13 6 -30 6 -37 0 -61 -23 -86 -83 -10 -26 -22 -47 -25 -47 -4 0 -18 27
-33 59 -14 32 -33 62 -42 65 -26 10 -64 7 -64 -5z"/>
</g>
</svg>
